<svg width="27" height="23" viewBox="0 0 27 23" fill="none" xmlns="http://www.w3.org/2000/svg">
<path d="M1.5 9.5459C0.671573 9.5459 0 10.2175 0 11.0459C0 11.8743 0.671573 12.5459 1.5 12.5459V11.0459V9.5459ZM26.5607 12.1066C27.1464 11.5208 27.1464 10.571 26.5607 9.98524L17.0147 0.439297C16.4289 -0.14649 15.4792 -0.14649 14.8934 0.439297C14.3076 1.02508 14.3076 1.97483 14.8934 2.56062L23.3787 11.0459L14.8934 19.5312C14.3076 20.117 14.3076 21.0667 14.8934 21.6525C15.4792 22.2383 16.4289 22.2383 17.0147 21.6525L26.5607 12.1066ZM1.5 11.0459V12.5459L25.5 12.5459V11.0459V9.5459L1.5 9.5459V11.0459Z" fill="white"/>
</svg>
